<?xml version="1.0" encoding="utf-8"?>
<!-- Generator: Adobe Illustrator 27.2.0, SVG Export Plug-In . SVG Version: 6.00 Build 0)  -->
<svg version="1.1" id="Layer_1" xmlns="http://www.w3.org/2000/svg" xmlns:xlink="http://www.w3.org/1999/xlink" x="0px" y="0px"
	 viewBox="0 0 1139.2 471" style="enable-background:new 0 0 1139.2 471;" xml:space="preserve">
<style type="text/css">
	.st0{fill-rule:evenodd;clip-rule:evenodd;fill:#AB1F24;}
</style>
<g>
	<path class="st0" d="M271.5,253.1c-16.1-0.9-33.8,10.3-38.8,26c-5.6,17.5-10.2,35.5-13.6,53.6c-3.2,16.9,6.6,27.8,24.3,29.5
		c18.9,1.9,36.4-3,53.1-11.2c40-19.5,63.7-52,73.6-94.7c3.9-17,3.6-34.2-4.2-50.4c-8.5-17.9-23.3-28.8-41.7-34.6
		c-29.6-9.4-58.9-6.7-86.8,6c-54.4,25-89,67.1-103.1,125.3c-5.5,22.8-4.1,45.8,5.8,67.5c8.1,17.8,22.2,29.1,40.3,35.8
		c3.7,1.4,7.4,2.5,11.1,3.7c-0.1,0.3-0.2,0.6-0.3,0.9c-8.3-2.5-16.8-4.3-24.8-7.5c-55.4-22.5-91.6-62.4-103.3-121.3
		c-15.8-79.4,20.8-149,88.7-182.7c27.5-13.6,57-17.5,87.3-15.4c25.2,1.8,49.2,8.1,70.9,21.3c43.6,26.6,71,64.5,79,115.5
		c4.5,29.3,2.2,58.2-8.1,86.2c-0.8,2.3-2,3-4.4,3.7c-3.8,1.3-7.8,3.3-10.6,6.2c-5.3,5.4-9.7,11.7-14.7,17.5
		c-27.6,32.2-62.5,50.1-104.8,53.1c-10.2,0.7-20.6,1-30.6-0.5c-29.7-4.6-51.7-27.3-57-57.4c-5.1-28.9,1.5-55.8,15.8-80.7
		c16.8-29.4,41.1-50.4,74.1-60.3c16.7-5,33.7-6.2,50.9-3.2c22.8,3.9,37.2,18.7,39,41.6c3.3,42.7-12.5,78-43.9,106.5
		c-8.3,7.5-18.6,12-29.6,14.2c-8.9,1.7-14.3-2.4-14.5-11.4c-0.1-4,0.7-8.1,1.7-12c5.9-22.2,11.9-44.4,17.9-66.6
		C270.7,256.1,271,254.7,271.5,253.1 M256.1,248.6c21.4,0,38.7-19.7,34.7-39.6c-1.5-7.6-6.1-12.1-13.7-13.6
		c-16.7-3.2-36.1,8.9-40.6,25.3C232.1,236.8,240.4,248.6,256.1,248.6"/>
	<path class="st0" d="M685.1,358.1c2.3-9.2,4.6-18.3,6.9-27.4c14-54.8,27.9-109.6,41.9-164.3c1.5-5.8,0.2-5.1,6.4-5.1
		c10.7,0,21.4,0.1,32.2-0.1c2.5,0,3.7,0.6,4.4,3.3c16.1,63.7,32.4,127.3,48.6,191c0.2,0.8,0.3,1.6,0.5,2.6c-1,0.2-1.7,0.4-2.5,0.4
		c-9.7,0-19.3,0-29,0.1c-2.4,0-3.2-1-3.7-3.2c-3.7-16.1-7.7-32.2-11.4-48.3c-0.7-2.8-1.7-3.8-4.7-3.8c-13.1,0.2-26.2,0.2-39.3,0
		c-3,0-4.1,0.9-4.8,3.7c-3.7,16.1-7.6,32.2-11.3,48.3c-0.4,1.7-0.5,3.2-2.9,3.2c-9.9-0.1-19.8,0-29.7-0.1
		C686.4,358.4,685.9,358.3,685.1,358.1 M755.4,207.2c-0.3,0-0.6-0.1-1-0.1c-5.2,22.3-10.3,44.5-15.5,66.9h32.5
		C766.1,251.4,760.7,229.3,755.4,207.2"/>
	<path class="st0" d="M985.7,410.9v-4.8c0-47.8,0.5-95.6-0.3-143.3c-0.3-16-3.6-31.9-5.6-47.8c-0.1-0.8-0.2-1.6-0.4-2.9h14.4
		c4.9,0,9.8,0.1,14.6-0.1c2.5-0.1,3.7,0.7,4,3.2c0.2,1.8,0.9,3.6,1.5,5.9c1.4-0.9,2.5-1.6,3.6-2.3c25.2-16.1,57.3-7.4,70.6,19.3
		c9,18,11.1,37.3,9.7,57.1c-0.9,13.3-3.7,26.1-9.9,38.1c-12.7,24.4-41.1,33.9-66,21.9c-1.2-0.6-2.5-1.2-4.4-2.2v4.8
		c0,16.4-0.1,32.9,0.1,49.3c0,2.8-0.7,3.7-3.6,3.7C1004.8,410.8,995.5,410.9,985.7,410.9 M1017.6,285.9c0,10.4,0,20.7,0.1,31.1
		c0,1.3,0.3,3.1,1.1,3.9c5.3,4.6,11.1,8.7,18.2,10.3c8.2,1.8,15.4-0.8,19.9-7.9c2.2-3.5,3.9-7.4,5-11.3c3.6-14.1,3.9-28.6,1.8-42.9
		c-0.9-6.4-2.7-12.9-5.6-18.6c-4.7-9.5-13.6-12.7-23.5-8.9c-5.1,2-9.8,5.3-14.4,8.4c-1.3,0.9-2.3,3.3-2.4,5
		C1017.5,265.2,1017.6,275.5,1017.6,285.9"/>
	<path class="st0" d="M879.6,353.3v4.4c0,16.6-0.1,33.1,0.1,49.7c0,2.8-0.8,3.7-3.6,3.7c-8.1-0.2-16.2-0.2-24.3,0
		c-3.2,0.1-4.2-0.8-4.2-4.2c0.1-43,0-86,0.1-129c0.1-21.4-1.4-42.6-5.6-63.6c-0.1-0.5,0-1.1,0-2.1h17.5c1.1,0,2.1,0,3.2,0
		c3.2,0,7-1,9.5,0.4c2,1.1,2.3,5.2,3.5,8.2c0.5-0.2,1.3-0.4,1.9-0.8c22.3-15.9,61.9-12.7,75.2,24c10.7,29.6,10.9,59.5-2.3,88.4
		c-11.6,25.6-41.5,35.4-66.9,23C882.5,354.6,881.4,354.1,879.6,353.3 M879.6,285.5c0,10.5,0,21,0.1,31.4c0,1.4,0.4,3.5,1.4,4.1
		c5.3,3.4,10.4,7.3,16.2,9.4c9,3.4,17.6,0.1,22.5-8.2c2.3-3.8,3.9-8.2,4.9-12.5c3.2-13.8,3-27.9,1.3-41.9
		c-0.8-6.6-2.4-13.1-6.2-18.8c-4.8-7.3-12.1-10.3-20.7-8.6c-7.2,1.4-12.9,5.4-18.1,10.2c-0.9,0.8-1.2,2.5-1.2,3.8
		C879.6,264.8,879.6,275.1,879.6,285.5"/>
	<path class="st0" d="M658.3,358.3h-32.4v-4.4c0-26.8,0.2-53.6-0.1-80.4c-0.1-7.4-0.9-15-2.6-22.2c-2.7-11.2-10.9-13.1-21.2-8.2
		c-4.8,2.3-7.9,6.5-10.2,11.1c-4.6,9.2-6.8,19.2-7.1,29.3c-0.6,23.3-0.6,46.7-0.9,70c0,1.5,0,3,0,4.8h-32.1
		c-2-48.7,3.7-97.6-6.5-146.2h18.7c3.3,0,6.7,0.3,10-0.1c3.4-0.3,4.3,1.2,4.6,4.1c0.3,2.9,0.9,5.8,1.4,9.4c2.6-2.2,4.7-4,6.7-5.6
		c17.3-13.7,46.4-11.4,59.8,4.7c7.7,9.3,10.4,20.6,11.2,32.2c0.7,10.1,0.6,20.2,0.7,30.4c0.1,22.4,0,44.8,0,67.2V358.3z"/>
	<path class="st0" d="M463.6,328.3v-4.4V198.1c0-4.6,0-4.6-4.8-4.6c-6.3,0-12.6,0-19.1,0v-29.2h80.1v29.2c-6.4,0-12.7,0-18.9,0
		c-4.7,0-4.7,0-4.7,4.6v125.5v4.6h23.7v30h-80.4c0-9.5-0.1-18.8,0.1-28c0-0.7,1.9-1.8,3-1.8c5.5-0.2,11-0.1,16.4-0.1H463.6z"/>
</g>
</svg>
