<svg width="2379" height="318" viewBox="0 0 2379 318" fill="none" xmlns="http://www.w3.org/2000/svg">
<path d="M301.699 265V58.0906H357.405V265H301.699ZM383.818 265V58.0906H436.607L528.124 171.095H529.716V58.0906H585.422V265H532.899L441.116 152.261H439.525V265H383.818ZM612.042 265V58.0906H664.831L756.348 171.095H757.94V58.0906H813.646V265H761.123L669.34 152.261H667.749V265H612.042ZM942.395 100.003C898.095 100.003 893.32 106.104 893.32 161.545C893.32 216.986 898.095 223.088 942.395 223.088C986.695 223.088 991.469 216.986 991.469 161.545C991.469 106.104 986.695 100.003 942.395 100.003ZM834.961 161.545C834.961 76.1289 856.448 54.9074 942.395 54.9074C1028.34 54.9074 1049.83 76.1289 1049.83 161.545C1049.83 246.962 1028.34 268.183 942.395 268.183C856.448 268.183 834.961 246.962 834.961 161.545ZM1269.16 58.0906L1201.52 265H1113.45L1051.11 58.0906H1112.13L1158.55 211.946H1160.14L1210.54 58.0906H1269.16ZM1403.04 58.0906L1469.36 265H1405.69L1394.55 224.679H1314.97L1302.5 265H1242.55L1310.73 58.0906H1403.04ZM1329.3 179.584H1380.76L1356.09 103.186H1354.5L1329.3 179.584ZM1509.05 265V105.839H1445.65V58.0906H1628.68V105.839H1564.75V265H1509.05ZM1643.33 58.0906H1813.1V105.839H1699.03V137.671H1802.49V182.767H1699.03V217.252H1813.63V265H1643.33V58.0906ZM2085.06 265H1913.43V227.862L2004.95 150.669C2022.45 136.08 2026.7 129.448 2026.7 118.041C2026.7 102.125 2023.78 100.003 1996.72 100.003C1972.85 100.003 1970.2 102.921 1970.2 126.53H1911.84C1911.84 69.2319 1930.94 54.9074 1996.99 54.9074C2065.69 54.9074 2082.4 65.5181 2080.81 107.961C2080.02 137.671 2083.47 149.343 2061.98 167.912L2004.42 217.252H2085.06V265ZM2111.49 214.599H2172.5V265H2111.49V214.599ZM2287.53 97.3503C2257.82 97.3503 2254.63 103.717 2254.63 161.545C2254.63 219.374 2257.82 225.74 2287.53 225.74C2317.24 225.74 2320.42 219.374 2320.42 161.545C2320.42 103.717 2317.24 97.3503 2287.53 97.3503ZM2196.28 161.545C2196.28 76.1289 2214.58 54.9074 2287.53 54.9074C2360.48 54.9074 2378.78 76.1289 2378.78 161.545C2378.78 246.962 2360.48 268.183 2287.53 268.183C2214.58 268.183 2196.28 246.962 2196.28 161.545Z" fill="white"/>
<path fill-rule="evenodd" clip-rule="evenodd" d="M105.913 109.33C127.18 52.874 167.94 40.9652 185.662 42.0679C187.435 42.95 186.401 45.3758 185.662 46.4785C168.827 60.5926 152.802 98.6713 146.894 115.946C129.172 153.878 91.5138 171.447 74.8997 175.49C63.3804 178.137 63.4543 174.388 64.9311 172.182C80.8809 156.304 98.8983 123.665 105.913 109.33Z" fill="#E43A34"/>
<path d="M104.918 108.956C105.582 109.206 106.245 109.455 106.908 109.705C109.144 103.77 111.724 97.9887 114.707 92.425C128.537 65.9272 154.9 42.8302 185.546 43.126C185.563 43.127 185.58 43.128 185.596 43.1291L185.189 43.0198C185.389 43.1239 185.458 43.207 185.518 43.3451C185.576 43.4844 185.599 43.7335 185.554 44.0263C185.466 44.6138 185.154 45.322 184.779 45.8867L184.979 45.6637C165.227 64.7839 155.262 90.6335 145.888 115.602L145.931 115.496C132.419 144.336 104.995 165.811 74.6483 174.457L74.6617 174.454C72.4272 174.958 70.1731 175.377 68.0253 175.332C66.9979 175.314 65.8715 175.073 65.5052 174.659C65.3344 174.472 65.2756 174.295 65.3203 173.934C65.3694 173.585 65.557 173.157 65.8146 172.774L65.6813 172.936C78.8809 159.257 88.6064 143.005 97.924 126.721C101.045 121.152 104.054 115.527 106.868 109.798C106.232 109.486 105.595 109.175 104.958 108.863C102.171 114.538 99.1738 120.141 96.0696 125.68C86.8182 141.866 77.0626 158.093 64.181 171.429L64.0477 171.591C63.6633 172.173 63.3393 172.824 63.2159 173.628C63.0745 174.411 63.3121 175.486 63.9696 176.13C65.303 177.373 66.7279 177.374 67.9601 177.457C70.4853 177.504 72.8067 177.047 75.1378 176.527L75.1512 176.523C106.265 167.641 133.986 145.9 147.858 116.396L147.9 116.291C157.124 91.5928 167.358 65.6085 186.345 47.2933L186.546 47.0703C187.079 46.2466 187.482 45.4012 187.657 44.3401C187.733 43.8126 187.744 43.1975 187.493 42.5581C187.251 41.9143 186.687 41.3766 186.136 41.1159L185.728 41.0066C185.711 41.0055 185.693 41.0045 185.675 41.0034C153.627 40.7367 126.942 64.5015 112.833 91.4201C109.801 97.0748 107.184 102.942 104.918 108.956ZM106.908 109.705L104.918 108.956L104.958 108.863L106.868 109.798L106.908 109.705Z" fill="#E43A34"/>
<path fill-rule="evenodd" clip-rule="evenodd" d="M185.996 154.513C223.273 106.991 212.205 66.1619 202.012 51.6877C200.33 50.6425 198.792 52.7867 198.232 53.9895C194.924 75.6517 170.659 109.132 158.94 123.165C135.686 158.01 140.285 199.159 145.491 215.377C149.235 226.541 152.409 224.521 153.528 222.116C158.81 200.285 177.374 167.951 185.996 154.513Z" fill="#E43A34"/>
<path d="M186.835 155.168C186.276 154.732 185.716 154.295 185.156 153.859C189.067 148.873 192.668 143.675 195.876 138.246C211.335 112.737 217.464 78.247 201.14 52.2963L201.449 52.5879C201.445 52.5856 201.441 52.5833 201.438 52.5811C201.248 52.4712 201.143 52.456 200.99 52.4802C200.837 52.5058 200.61 52.6195 200.384 52.8118C199.927 53.1949 199.486 53.8262 199.199 54.4372L199.285 54.1511C193.192 80.9467 176.247 102.868 159.759 123.845L159.827 123.754C142.211 150.202 138.057 184.7 146.506 215.056L146.501 215.043C147.236 217.206 148.054 219.341 149.217 221.142C149.77 222.006 150.565 222.832 151.106 222.921C151.508 223.067 152.169 222.541 152.561 221.668L152.492 221.866C157.334 203.491 166.189 186.752 175.279 170.342C178.419 164.793 181.664 159.31 185.098 153.941C185.697 154.322 186.295 154.704 186.894 155.086C183.491 160.406 180.259 165.867 177.136 171.386C168.095 187.689 159.277 204.441 154.563 222.367L154.494 222.564C154.197 223.192 153.81 223.804 153.192 224.325C152.601 224.85 151.572 225.214 150.675 224.999C148.906 224.526 148.154 223.31 147.437 222.305C146.073 220.18 145.253 217.967 144.481 215.712L144.477 215.699C135.828 184.561 140.059 149.671 158.053 122.576L158.121 122.485C174.456 101.777 191.377 79.5543 197.179 53.828L197.266 53.5419C197.691 52.6629 198.203 51.8848 199.01 51.1867C199.418 50.8479 199.929 50.5202 200.598 50.393C201.265 50.2558 202.027 50.4404 202.543 50.7681C202.553 50.7745 202.564 50.781 202.574 50.7876L202.883 51.0791C219.926 78.2551 213.383 113.363 197.712 139.326C194.453 144.842 190.798 150.116 186.835 155.168ZM185.156 153.859L186.835 155.168L186.894 155.086L185.098 153.941L185.156 153.859Z" fill="#E43A34"/>
<path d="M70.889 259.225C82.4083 231.879 65.3509 204.46 53.167 195.271C86.8388 210.267 110.764 189.022 118.517 176.525C106.111 205.636 125.901 234.232 136.239 242.685C108.77 231.218 79.0116 248.199 70.889 259.225Z" fill="#E43A34" stroke="#E43A34" stroke-width="2.12651"/>
<path d="M40.9821 173.282H0C7.0888 173.282 22.1525 135.792 32.1211 118.149C50.9508 90.5825 79.3798 85.4367 90.8253 86.1718L40.9821 173.282Z" fill="#E43A34" stroke="#E43A34" stroke-width="2.12651"/>
<path d="M161.207 244.18L180.826 280C177.433 273.804 203.285 242.69 214.072 225.532C229.369 195.877 220.298 168.566 214.17 158.914L161.207 244.18Z" fill="#E43A34" stroke="#E43A34" stroke-width="2.12651"/>
</svg>
